<svg xmlns="http://www.w3.org/2000/svg" xml:space="preserve" viewBox="0 0 512 512"><path d="M0 496.9c0 8.3 6.7 15 15 15h482c8.3 0 15-6.7 15-15v-482c0-8.3-6.7-15-15-15H15c-8.3 0-15 6.7-15 15z" style="fill:#141414"/><linearGradient id="a" x1="74.5" x2="234.5" y1="255.998" y2="255.998" gradientUnits="userSpaceOnUse"><stop offset="0" style="stop-color:#11998e"/><stop offset="1" style="stop-color:#38ef7d"/></linearGradient><path d="M130 353.9v-151H74.5v-44.8h160v44.8h-55.2v151z" style="fill:url(#a)"/><linearGradient id="b" x1="241.752" x2="437.501" y1="255.873" y2="255.873" gradientUnits="userSpaceOnUse"><stop offset="0" style="stop-color:#11998e"/><stop offset="1" style="stop-color:#38ef7d"/></linearGradient><path d="M291.5 255.4c0 15.8 4.9 29.3 14.8 40.5 9.8 11 22.5 16.5 38 16.5 9.7 0 18.6-2.4 26.8-7.2 8.3-4.8 13.3-11.1 15-18.8h-56.2v-39.5h107.8v19c0 25.7-8.7 47.3-26 65-17.3 17.3-39.8 26-67.2 26q-44.25 0-73.2-28.8c-19.5-19.2-29.2-43.2-29.2-72.2 0-27.5 9.9-51.2 29.7-71 20-20 44.2-30 72.5-30 19.7 0 37.6 4.9 53.8 14.8q24.3 14.7 34.5 40.2l-41.8 20.5c-8.7-20.7-24.2-31-46.8-31-14.8 0-27.2 5.2-37.2 15.8s-15.3 23.8-15.3 40.2" style="fill:url(#b)"/></svg>